<svg xmlns="http://www.w3.org/2000/svg" xmlns:xlink="http://www.w3.org/1999/xlink" viewBox="0 0 291 549.46"><defs><style>.cls-1{fill:none;}.cls-2{mask:url(#mask);}.cls-3{fill:#313944;}.cls-4{fill:#fff;}.cls-5{clip-path:url(#clip-path);}.cls-6{opacity:0.5;}.cls-7{fill:#5a5c70;}.cls-8{fill:#dfe1ee;}.cls-9{opacity:0.1;}.cls-10{fill:#70c5f8;}</style><mask id="mask" x="-1223.83" y="-8.91" width="553" height="554" maskUnits="userSpaceOnUse"/><clipPath id="clip-path"><rect class="cls-1" x="29.3" y="50.53" width="232.62" height="451" rx="16.08" ry="16.08"/></clipPath></defs><title>mobile</title><g id="Samsung_galaxy_9" data-name="Samsung galaxy 9"><rect class="cls-3" x="21.61" y="21.53" width="248" height="509" rx="40.76" ry="40.76"/><rect class="cls-4" x="29.3" y="50.53" width="232.62" height="451" rx="16.08" ry="16.08"/><rect class="cls-3" x="18.61" y="100.53" width="9" height="70" rx="3" ry="3"/><rect class="cls-3" x="18.61" y="218.53" width="9" height="36" rx="3" ry="3"/><rect class="cls-3" x="263.61" y="205.53" width="9" height="36" rx="3" ry="3"/><g class="cls-5"><g class="cls-6"><rect class="cls-7" x="22.61" y="46.53" width="250" height="70"/><rect class="cls-8" x="88.61" y="73.53" width="118" height="20"/></g><g class="cls-9"><rect class="cls-3" x="55.93" y="142.53" width="183.68" height="72"/></g><g class="cls-6"><rect class="cls-10" x="55.93" y="236.53" width="182.44" height="26"/></g><g class="cls-6"><rect class="cls-10" x="55.02" y="272.2" width="137.39" height="26"/></g><g class="cls-6"><rect class="cls-10" x="55.02" y="311.87" width="182.11" height="18"/></g><g class="cls-6"><rect class="cls-10" x="55.02" y="343.53" width="147.32" height="26"/></g><g class="cls-9"><rect class="cls-3" x="55.93" y="397.53" width="84.3" height="72"/></g><g class="cls-9"><rect class="cls-3" x="149.11" y="397.53" width="84.3" height="72"/></g></g></g></svg>